<?xml version="1.0" encoding="UTF-8" standalone="no"?>
<!-- Created with Inkscape (http://www.inkscape.org/) -->

<svg
   width="159.76459mm"
   height="215.26457mm"
   viewBox="0 0 159.76459 215.26457"
   version="1.1"
   id="svg1"
   xml:space="preserve"
   xmlns:inkscape="http://www.inkscape.org/namespaces/inkscape"
   xmlns:sodipodi="http://sodipodi.sourceforge.net/DTD/sodipodi-0.dtd"
   xmlns="http://www.w3.org/2000/svg"
   xmlns:svg="http://www.w3.org/2000/svg"><sodipodi:namedview
     id="namedview1"
     pagecolor="#ffffff"
     bordercolor="#000000"
     borderopacity="0.25"
     inkscape:showpageshadow="2"
     inkscape:pageopacity="0.0"
     inkscape:pagecheckerboard="true"
     inkscape:deskcolor="#d1d1d1"
     inkscape:document-units="mm" /><defs
     id="defs1" /><g
     inkscape:label="Layer 1"
     inkscape:groupmode="layer"
     id="layer1"
     transform="translate(-25.138699,-40.867712)"><g
       id="g1"
       transform="matrix(0.26458333,0,0,0.26458333,-0.2290086,-52.999995)"><g
         inkscape:label="1"
         id="g4" /><g
         inkscape:label="0"
         id="g5"><path
           d="M 699.2126,1064.1364 A 94.488189,94.488189 0 0 0 687.06417,1017.788 L 373.09331,460.00732 A 94.488189,94.488189 0 0 1 360.94488,413.65884 V 400.62992 H 296.04445 A 7.5590563,7.5590563 0 0 1 285.35433,389.9398 V 355.27559 H 171.9685 v 34.66421 a 7.559055,7.559055 0 0 1 -10.69011,10.69012 H 96.377953 v 721.88978 h 64.900437 a 7.559055,7.559055 0 0 1 10.69011,10.6901 v 34.6642 h 451.65355 v -34.6642 a 7.5590553,7.5590553 0 0 1 10.69012,-10.6901 h 64.90043 z"
           style="fill:none;stroke:#000000"
           id="path5" /></g></g></g></svg>
