<?xml version="1.0" encoding="UTF-8" standalone="no"?>
<!-- Created with Inkscape (http://www.inkscape.org/) -->

<svg
   width="191.26459mm"
   height="191.2645mm"
   viewBox="0 0 191.26459 191.2645"
   version="1.1"
   id="svg1"
   xml:space="preserve"
   xmlns="http://www.w3.org/2000/svg"
   xmlns:svg="http://www.w3.org/2000/svg"><defs
     id="defs1"><marker
       id="DistanceX"
       orient="auto"
       refX="0"
       refY="0"
       style="overflow:visible"><path
         d="M 3,-3 -3,3 M 0,-5 V 5"
         style="stroke:#000000;stroke-width:0.5"
         id="path1" /></marker><pattern
       id="Hatch"
       patternUnits="userSpaceOnUse"
       width="8"
       height="8"
       x="0"
       y="0"><path
         d="M8 4 l-4,4"
         stroke="#000000"
         stroke-width="0.25"
         linecap="square"
         id="path2" /><path
         d="M6 2 l-4,4"
         stroke="#000000"
         stroke-width="0.25"
         linecap="square"
         id="path3" /><path
         d="M4 0 l-4,4"
         stroke="#000000"
         stroke-width="0.25"
         linecap="square"
         id="path4" /></pattern><symbol
       id="*MODEL_SPACE" /><symbol
       id="*PAPER_SPACE" /></defs><g
     id="layer1"
     transform="translate(-9.3887,-52.867752)"><g
       id="g1"
       transform="matrix(0.26458333,0,0,0.26458333,105.02099,-148.5)"><g
         id="g4" /><g
         id="g10"><path
           d="m 285.35433,1113.2052 v 18.629 a 9.4488381,9.4488381 0 0 1 -13.36265,13.3627 h -86.66053 a 9.4488381,9.4488381 0 0 1 -13.36265,-13.3627 v -18.629 a 9.4488381,9.4488381 0 0 1 13.36265,-13.3627 h 86.66053 a 9.4488381,9.4488381 0 0 1 13.36265,13.3627 z"
           style="fill:none;stroke:#000000"
           id="path5" /><path
           d="M 9.314518,1407.874 H -9.314518 a 9.448819,9.448819 0 0 1 -13.362647,-13.3626 v -86.6606 a 9.448819,9.448819 0 0 1 13.362647,-13.3626 H 9.314518 a 9.448819,9.448819 0 0 1 13.362647,13.3626 v 86.6606 A 9.448819,9.448819 0 0 1 9.314518,1407.874 Z"
           style="fill:none;stroke:#000000"
           id="path6" /><path
           d="m -285.35433,1131.8342 v -18.629 a 9.4488381,9.4488381 0 0 1 13.36265,-13.3627 h 86.66053 a 9.4488381,9.4488381 0 0 1 13.36265,13.3627 v 18.629 a 9.4488381,9.4488381 0 0 1 -13.36265,13.3627 h -86.66053 a 9.4488381,9.4488381 0 0 1 -13.36265,-13.3627 z"
           style="fill:none;stroke:#000000"
           id="path7" /><path
           d="M -9.314518,837.16535 H 9.314518 A 9.4488194,9.4488194 0 0 1 22.677165,850.528 v 86.66053 A 9.4488194,9.4488194 0 0 1 9.314518,950.55118 H -9.314518 A 9.4488194,9.4488194 0 0 1 -22.677165,937.18853 V 850.528 a 9.4488194,9.4488194 0 0 1 13.362647,-13.36265 z"
           style="fill:none;stroke:#000000"
           id="path8" /><path
           d="m 96.377953,1122.5197 a 96.377953,96.377953 0 0 0 -192.755906,0 96.377953,96.377953 0 0 0 192.755906,0 z"
           style="fill:none;stroke:#000000"
           id="path9" /><path
           d="m 360.94488,1122.5197 a 360.94488,360.94488 0 0 0 -721.88976,0 360.94488,360.94488 0 0 0 721.88976,0 z"
           style="fill:none;stroke:#000000"
           id="path10" /></g></g></g></svg>
