<?xml version="1.0" encoding="UTF-8" standalone="no"?>
<!-- Created with Inkscape (http://www.inkscape.org/) -->

<svg
   width="370.26459mm"
   height="370.2644mm"
   viewBox="0 0 370.26459 370.2644"
   version="1.1"
   id="svg1"
   xml:space="preserve"
   xmlns:inkscape="http://www.inkscape.org/namespaces/inkscape"
   xmlns:sodipodi="http://sodipodi.sourceforge.net/DTD/sodipodi-0.dtd"
   xmlns="http://www.w3.org/2000/svg"
   xmlns:svg="http://www.w3.org/2000/svg"><sodipodi:namedview
     id="namedview1"
     pagecolor="#ffffff"
     bordercolor="#000000"
     borderopacity="0.25"
     inkscape:showpageshadow="2"
     inkscape:pageopacity="0.0"
     inkscape:pagecheckerboard="true"
     inkscape:deskcolor="#d1d1d1"
     inkscape:document-units="mm" /><defs
     id="defs1" /><g
     inkscape:label="Layer 1"
     inkscape:groupmode="layer"
     id="layer1"
     transform="translate(292.55102,136.21832)"><g
       id="g1"
       transform="matrix(0.26458333,0,0,0.26458333,-107.41873,-248.08611)"><g
         inkscape:label="1"
         id="g4" /><g
         inkscape:label="0"
         id="g9"><path
           d="M 185.33115,1099.8425 H 610.2594 a 9.4488381,9.4488381 0 0 1 13.36265,13.3627 v 18.629 a 9.4488381,9.4488381 0 0 1 -13.36265,13.3627 H 185.33115 a 9.4488381,9.4488381 0 0 1 -13.36265,-13.3627 v -18.629 a 9.4488381,9.4488381 0 0 1 13.36265,-13.3627 z"
           style="fill:none;stroke:#000000"
           id="path5" /><path
           d="m 22.677165,1307.8508 v 424.9283 A 9.448819,9.448819 0 0 1 9.314518,1746.1417 H -9.314518 a 9.448819,9.448819 0 0 1 -13.362647,-13.3626 v -424.9283 a 9.448819,9.448819 0 0 1 13.362647,-13.3626 H 9.314518 a 9.448819,9.448819 0 0 1 13.362647,13.3626 z"
           style="fill:none;stroke:#000000"
           id="path6" /><path
           d="M -185.33115,1145.1969 H -610.2594 a 9.4488381,9.4488381 0 0 1 -13.36265,-13.3627 v -18.629 a 9.4488381,9.4488381 0 0 1 13.36265,-13.3627 h 424.92825 a 9.4488381,9.4488381 0 0 1 13.36265,13.3627 v 18.629 a 9.4488381,9.4488381 0 0 1 -13.36265,13.3627 z"
           style="fill:none;stroke:#000000"
           id="path7" /><path
           d="M -22.677165,937.18853 V 512.26029 A 9.4488194,9.4488194 0 0 1 -9.314518,498.89764 H 9.314518 a 9.4488194,9.4488194 0 0 1 13.362647,13.36265 V 937.18853 A 9.4488194,9.4488194 0 0 1 9.314518,950.55118 H -9.314518 a 9.4488194,9.4488194 0 0 1 -13.362647,-13.36265 z"
           style="fill:none;stroke:#000000"
           id="path8" /><path
           d="m 699.2126,1122.5197 a 699.2126,699.2126 0 0 0 -1398.4252,0 699.2126,699.2126 0 0 0 1398.4252,0 z"
           style="fill:none;stroke:#000000"
           id="path9" /></g></g></g></svg>
