<?xml version="1.0" encoding="UTF-8" standalone="no"?>
<!-- Created with Inkscape (http://www.inkscape.org/) -->

<svg
   width="500.26459mm"
   height="500.26437mm"
   viewBox="0 0 500.26459 500.26437"
   version="1.1"
   id="svg1"
   xml:space="preserve"
   xmlns="http://www.w3.org/2000/svg"
   xmlns:svg="http://www.w3.org/2000/svg"><defs
     id="defs1"><marker
       id="DistanceX"
       orient="auto"
       refX="0"
       refY="0"
       style="overflow:visible"><path
         d="M 3,-3 -3,3 M 0,-5 V 5"
         style="stroke:#000000;stroke-width:0.5"
         id="path1" /></marker><pattern
       id="Hatch"
       patternUnits="userSpaceOnUse"
       width="8"
       height="8"
       x="0"
       y="0"><path
         d="M8 4 l-4,4"
         stroke="#000000"
         stroke-width="0.25"
         linecap="square"
         id="path2" /><path
         d="M6 2 l-4,4"
         stroke="#000000"
         stroke-width="0.25"
         linecap="square"
         id="path3" /><path
         d="M4 0 l-4,4"
         stroke="#000000"
         stroke-width="0.25"
         linecap="square"
         id="path4" /></pattern><symbol
       id="*MODEL_SPACE" /><symbol
       id="*PAPER_SPACE" /></defs><g
     id="layer1"
     transform="translate(145.1113,101.63218)"><g
       id="g1"
       transform="matrix(0.26458333,0,0,0.26458333,105.02099,-148.5)"><g
         id="g4" /><g
         id="g9"><path
           d="m 185.33115,1099.8425 h 670.59754 a 9.4488381,9.4488381 0 0 1 13.36265,13.3627 v 18.629 a 9.4488381,9.4488381 0 0 1 -13.36265,13.3627 H 185.33115 a 9.4488381,9.4488381 0 0 1 -13.36265,-13.3627 v -18.629 a 9.4488381,9.4488381 0 0 1 13.36265,-13.3627 z"
           style="fill:none;stroke:#000000"
           id="path5" /><path
           d="m 22.677165,1307.8508 v 670.5976 A 9.448819,9.448819 0 0 1 9.314518,1991.811 H -9.314518 a 9.448819,9.448819 0 0 1 -13.362647,-13.3626 v -670.5976 a 9.448819,9.448819 0 0 1 13.362647,-13.3626 H 9.314518 a 9.448819,9.448819 0 0 1 13.362647,13.3626 z"
           style="fill:none;stroke:#000000"
           id="path6" /><path
           d="m -185.33115,1145.1969 h -670.59754 a 9.4488381,9.4488381 0 0 1 -13.36265,-13.3627 v -18.629 a 9.4488381,9.4488381 0 0 1 13.36265,-13.3627 h 670.59754 a 9.4488381,9.4488381 0 0 1 13.36265,13.3627 v 18.629 a 9.4488381,9.4488381 0 0 1 -13.36265,13.3627 z"
           style="fill:none;stroke:#000000"
           id="path7" /><path
           d="M -22.677165,937.18853 V 266.59099 A 9.448819,9.448819 0 0 1 -9.314518,253.22835 H 9.314518 a 9.448819,9.448819 0 0 1 13.362647,13.36264 V 937.18853 A 9.4488194,9.4488194 0 0 1 9.314518,950.55118 H -9.314518 a 9.4488194,9.4488194 0 0 1 -13.362647,-13.36265 z"
           style="fill:none;stroke:#000000"
           id="path8" /><path
           d="m 944.88189,1122.5197 a 944.88189,944.88189 0 0 0 -1889.76378,0 944.88189,944.88189 0 0 0 1889.76378,0 z"
           style="fill:none;stroke:#000000"
           id="path9" /></g></g></g></svg>
